#!OML:ASF H:\Terrain\Patient Classification 1\Walking\steve\steve.ASF
:FULLY-SPECIFIED
:DEGREES
47
root 7.52787 15.4144 -30.4331 5.56024 -8.79822 2.7554
lowerback 0.536306 4.19525 -3.14499
upperback -2.99061 5.46725 -2.06742
thorax -3.4723 2.78131 -0.575678
lowerneck -10.9358 -0.514846 -2.67607
upperneck 12.9225 -0.8228 3.94663
head 5.72752 -0.236636 1.61573
rclavicle 7.21324e-014 1.47101e-014
rhumerus -25.1124 1.25831 -88.3172
rradius 47.1607
rwrist -14.296
rhand -19.7142 -40.7998
rfingers 7.12502
rthumb 6.6157 -70.6765
lclavicle 7.21324e-014 1.47101e-014
lhumerus -59.8163 34.9501 45.0414
lradius 11.1932
lwrist -24.1772
lhand -17.4062 -10.392
lfingers 7.12502
lthumb 8.8434 19.4027
rfemur -14.1309 5.78473 17.2594
rtibia 71.7363
rfoot 6.50772 -2.13291
rtoes -3.75639
lfemur -30.7185 1.61016 -25.3302
ltibia 36.1189
lfoot -10.49 -0.181984
ltoes -3.59586
48
root 7.53845 15.4538 -30.2224 5.5854 -8.63602 2.41595
lowerback 0.648122 3.95126 -2.82785
upperback -3.05051 5.15044 -1.81353
thorax -3.58624 2.61956 -0.488669
lowerneck -10.6879 -0.348319 -3.02288
upperneck 12.9464 -0.577102 4.16937
head 5.68516 -0.120048 1.76263
rclavicle 6.51486e-016 -7.7526e-015
rhumerus -26.177 0.944155 -88.4921
rradius 46.5107
rwrist -12.8164
rhand -17.7569 -43.9865
rfingers 7.12502
rthumb 8.50493 -73.7953
lclavicle 6.51486e-016 -7.7526e-015
lhumerus -58.3526 35.2584 46.9518
lradius 11.6107
lwrist -23.9586
lhand -17.6141 -10.158
lfingers 7.12502
lthumb 8.6428 19.6451
rfemur -15.9468 5.65443 17.7831
rtibia 72.7971
rfoot 5.12827 -2.50108
rtoes -3.57302
lfemur -29.5294 1.38571 -25.0527
ltibia 35.6678
lfoot -11.347 -0.525433
ltoes -2.68322
49
root 7.54287 15.4963 -30.0108 5.51214 -8.617 2.1673
lowerback 0.663724 3.82655 -2.62053
upperback -2.98129 4.99484 -1.66485
thorax -3.51547 2.53779 -0.4414
lowerneck -10.5047 -0.217824 -3.04434
upperneck 12.8893 -0.398149 4.16214
head 5.62915 -0.0366185 1.77709
rclavicle 3.83212e-014 -1.5704e-014
rhumerus -27.2398 0.480613 -88.628
rradius 45.6525
rwrist -12.136
rhand -19.2358 -40.4662
rfingers 7.12502
rthumb 7.07752 -70.3279
lclavicle 3.83212e-014 -1.5704e-014
lhumerus -56.1891 35.2083 49.5071
lradius 12.2061
lwrist -23.5426
lhand -17.8604 -9.1807
lfingers 7.12502
lthumb 8.40504 20.6321
rfemur -17.6585 5.74061 18.2129
rtibia 73.5704
rfoot 3.93555 -2.60311
rtoes 0.893896
lfemur -28.2914 1.33566 -24.9067
ltibia 35.2594
lfoot -11.8632 -0.633772
ltoes -2.54919
50
root 7.54793 15.5361 -29.7991 5.33946 -8.61334 2.3254
lowerback 0.673101 3.75789 -2.78926
upperback -2.88698 4.90068 -1.66455
thorax -3.43626 2.49431 -0.340593
lowerneck -10.3155 -0.182277 -2.85815
upperneck 12.8832 -0.351303 3.93311
head 5.59282 -0.0233416 1.67724
rclavicle 3.78677e-014 -1.31198e-014
rhumerus -28.3547 0.0289476 -88.7135
rradius 44.322
rwrist -12.7502
rhand -16.0768 -46.0752
rfingers 7.12502
rthumb 10.1261 -75.8115
lclavicle 3.78677e-014 -1.31198e-014
lhumerus -53.1839 34.387 52.9381
lradius 12.4455
lwrist -22.185
lhand -18.4387 -10.9312
lfingers 7.12502
lthumb 7.84693 18.9032
rfemur -19.2285 5.70772 18.1892
rtibia 74.0713
rfoot 2.64376 -2.29592
rtoes 6.69249
lfemur -27.0482 1.47083 -25.3027
ltibia 34.8454
lfoot -12.2336 -0.425646
ltoes -5.34538
51
root 7.55477 15.556 -29.592 5.06486 -8.56747 2.72544
lowerback 0.948648 3.6725 -3.16774
upperback -2.88981 4.76251 -1.72781
thorax -3.61905 2.43541 -0.211909
lowerneck -10.1316 -0.283665 -2.86284
upperneck 12.9982 -0.487396 3.87899
head 5.60226 -0.0952675 1.65073
rclavicle -5.29893e-014 -1.64991e-014
rhumerus -29.6744 -0.421847 -88.766
rradius 42.7401
rwrist -13.559
rhand -14.982 -49.801
rfingers 7.12502
rthumb 11.1821 -79.4831
lclavicle -5.29893e-014 -1.64991e-014
lhumerus -49.9044 32.6063 57.0063
lradius 12.5909
lwrist -19.5206
lhand -19.639 -18.0389
lfingers 7.12502
lthumb 6.68836 11.8354
rfemur -20.6202 5.46898 17.9087
rtibia 74.3478
rfoot 1.03536 -1.77712
rtoes 8.17504
lfemur -25.7258 1.5765 -25.9296
ltibia 34.4239
lfoot -12.8603 -0.366959
ltoes -7.84147
52
root 7.56124 15.5813 -29.3831 4.91876 -8.51127 2.80965
lowerback 1.05705 3.58442 -3.24543
upperback -2.87841 4.63962 -1.67377
thorax -3.67652 2.37733 -0.115335
lowerneck -9.94922 -0.42864 -3.08965
upperneck 13.0714 -0.66524 3.95426
head 5.60114 -0.18927 1.69819
rclavicle 4.67995e-014 -1.13307e-014
rhumerus -30.9529 -1.07359 -88.6295
rradius 41.2962
rwrist -13.495
rhand -14.9376 -54.1912
rfingers 7.12502
rthumb 11.2249 -83.8709
lclavicle 4.67995e-014 -1.13307e-014
lhumerus -47.1914 31.358 60.1607
lradius 12.8403
lwrist -17.6754
lhand -18.5226 -11.132
lfingers 7.12502
lthumb 7.76592 18.7054
rfemur -22.2641 5.22846 17.9889
rtibia 74.418
rfoot -0.739461 -1.31806
rtoes 2.03601
lfemur -24.4572 1.45046 -26.117
ltibia 33.9633
lfoot -13.5938 -0.570158
ltoes -5.86873
53
root 7.56599 15.6146 -29.1686 4.93684 -8.34223 2.65877
lowerback 0.881766 3.46553 -3.07511
upperback -2.83575 4.49832 -1.55752
thorax -3.52518 2.30287 -0.0690964
lowerneck -9.87748 -0.391566 -3.10116
upperneck 13.2942 -0.615616 3.92051
head 5.6566 -0.168225 1.69465
rclavicle -7.30131e-015 8.74653e-015
rhumerus -32.031 -2.05553 -88.3086
rradius 39.9057
rwrist -13.0781
rhand -18.2307 -37.7716
rfingers 7.12502
rthumb 8.04767 -67.5984
lclavicle -7.30131e-015 8.74653e-015
lhumerus -44.3904 29.6178 63.5839
lradius 13.3611
lwrist -15.2709
lhand -18.9483 -9.45952
lfingers 7.12502
lthumb 7.35506 20.3926
rfemur -24.0782 4.96107 18.3197
rtibia 74.2903
rfoot -2.11012 -0.942286
rtoes -2.3663
lfemur -23.2871 1.24756 -26.0327
ltibia 33.381
lfoot -14.0671 -0.955934
ltoes -2.76697
54
root 7.57041 15.6427 -28.9512 4.86671 -8.03571 2.62315
lowerback 0.831512 3.26141 -3.08445
upperback -2.78632 4.23377 -1.39516
thorax -3.45196 2.17285 0.119582
lowerneck -10.2305 -0.177578 -2.98883
upperneck 14.0111 -0.347501 3.88905
head 5.9318 -0.0291357 1.69344
rclavicle 4.47875e-014 -7.95139e-015
rhumerus -33.1219 -2.84127 -87.872
rradius 38.3646
rwrist -12.2562
rhand -18.0132 -37.9268
rfingers 7.12502
rthumb 8.25762 -67.7454
lclavicle 4.47875e-014 -7.95139e-015
lhumerus -41.5358 26.211 68.0705
lradius 14.5287
lwrist -10.7549
lhand -19.7568 -9.79654
lfingers 7.12502
lthumb 6.57458 20.0814
rfemur -25.5809 4.57807 18.5318
rtibia 73.8969
rfoot -3.32823 -0.298338
rtoes -2.67901
lfemur -21.9778 1.02083 -26.0763
ltibia 32.7048
lfoot -14.5795 -1.20846
ltoes -4.46807
55
root 7.57303 15.6773 -28.7347 4.72639 -7.62768 2.71496
lowerback 0.882422 3.01156 -3.33431
upperback -2.75128 3.89811 -1.19335
thorax -3.46674 2.01502 0.477431
lowerneck -10.3573 -0.284875 -3.6693
upperneck 14.3739 -0.426411 4.14833
head 6.07204 -0.0822103 1.88525
rclavicle 3.76301e-014 -8.05078e-015
rhumerus -34.2583 -3.41139 -87.4523
rradius 36.7688
rwrist -10.8786
rhand -18.9558 -40.2649
rfingers 7.12502
rthumb 7.34786 -70.1173
lclavicle 3.76301e-014 -8.05078e-015
lhumerus -39.3459 23.3585 71.5477
lradius 15.7005
lwrist -7.03298
lhand -21.0332 -9.17592
lfingers 7.12502
lthumb 5.34232 20.7367
rfemur -26.8391 4.07422 18.6474
rtibia 73.1979
rfoot -4.62128 0.416908
rtoes -3.95502
lfemur -20.6497 0.626819 -26.237
ltibia 32.0987
lfoot -15.4164 -1.18959
ltoes -7.18487
56
root 7.57178 15.6966 -28.522 4.57757 -7.29224 2.83409
lowerback 0.95656 2.82336 -3.48904
upperback -2.71707 3.64054 -1.17938
thorax -3.47508 1.89064 0.586143
lowerneck -10.2251 -0.248149 -3.29859
upperneck 14.6076 -0.41785 3.95605
head 6.12193 -0.0738563 1.76502
rclavicle -9.84664e-015 1.09332e-014
rhumerus -35.4116 -4.15498 -87.299
rradius 35.389
rwrist -10.4482
rhand -19.7294 -41.2925
rfingers 7.12502
rthumb 6.60106 -71.1696
lclavicle -9.84664e-015 1.09332e-014
lhumerus -37.3198 21.3232 73.6943
lradius 16.4641
lwrist -4.37137
lhand -23.7028 -5.92777
lfingers 7.12502
lthumb 2.76437 24.0341
rfemur -28.0869 3.75377 18.7967
rtibia 72.3359
rfoot -5.9486 0.788631
rtoes -6.13194
lfemur -19.4708 0.425002 -26.4748
ltibia 31.5988
lfoot -15.7869 -1.06991
ltoes -8.87693
57
root 7.57184 15.687 -28.312 4.4677 -7.10498 2.7708
lowerback 1.15199 2.67953 -3.427
upperback -2.76905 3.44065 -1.1558
thorax -3.6292 1.79179 0.573138
lowerneck -10.186 -0.153793 -2.8864
upperneck 14.9218 -0.349232 3.84401
head 6.21133 -0.0262761 1.66928
rclavicle 1.88077e-014 4.47266e-015
rhumerus -36.6859 -5.13784 -86.9051
rradius 33.9761
rwrist -9.68137
rhand -19.0213 -40.4429
rfingers 7.12502
rthumb 7.28463 -70.2975
lclavicle 1.88077e-014 4.47266e-015
lhumerus -35.5831 18.378 75.945
lradius 17.7173
lwrist -0.741877
lhand -20.8002 -8.4311
lfingers 7.12502
lthumb 5.5673 21.4758
rfemur -29.3295 3.65804 19.1747
rtibia 71.3181
rfoot -7.50116 0.998507
rtoes -7.449
lfemur -18.3204 0.441805 -26.5533
ltibia 31.1347
lfoot -15.7032 -1.10132
ltoes -10.1329
